<svg width="8" height="9" viewBox="0 0 8 9" fill="none" xmlns="http://www.w3.org/2000/svg">
<path d="M0 5.52353C0 5.10882 0.129958 4.63309 0.389873 4.09632C0.649789 3.55956 0.983966 3.03971 1.39241 2.53676C2.23629 1.56618 2.96709 0.833824 3.58481 0.339706L3.98987 0C4.12489 0.123529 4.27342 0.236765 4.43544 0.339706C4.65823 0.536765 4.99747 0.863971 5.45316 1.32132C5.90886 1.77868 6.29873 2.19412 6.62278 2.56765C7.00759 3.04412 7.33333 3.55368 7.6 4.09632C7.86667 4.63897 8 5.11471 8 5.52353C8 5.99412 7.89536 6.44338 7.68608 6.87132C7.47679 7.29927 7.19409 7.66912 6.83797 7.98088C6.48186 8.29265 6.0557 8.54044 5.55949 8.72427C5.06329 8.90809 4.54008 9 3.98987 9C3.44979 9 2.93418 8.91103 2.44304 8.73309C1.9519 8.55515 1.52743 8.3125 1.16962 8.00515C0.811814 7.69779 0.527426 7.32868 0.316456 6.89779C0.105485 6.46691 0 6.00882 0 5.52353ZM1.22025 4.14265C1.22025 4.53382 1.31477 4.84559 1.5038 5.07794C1.69283 5.31029 1.97975 5.42647 2.36456 5.42647C2.75274 5.42647 3.04219 5.31103 3.23291 5.08015C3.42363 4.84926 3.52068 4.53676 3.52405 4.14265C3.52068 3.74853 3.42363 3.43529 3.23291 3.20294C3.04219 2.97059 2.75274 2.85441 2.36456 2.85441C1.97975 2.85441 1.69283 2.97059 1.5038 3.20294C1.31477 3.43529 1.22025 3.74853 1.22025 4.14265ZM2.07089 4.14265C2.07089 4.07206 2.07173 4.01765 2.07342 3.97941C2.07511 3.94118 2.07848 3.88971 2.08354 3.825C2.08861 3.76029 2.09705 3.70956 2.10886 3.67279C2.12068 3.63603 2.13671 3.59779 2.15696 3.55809C2.17722 3.51838 2.20506 3.48971 2.24051 3.47206C2.27595 3.45441 2.3173 3.44559 2.36456 3.44559C2.43882 3.44559 2.49789 3.46471 2.54177 3.50294C2.58565 3.54118 2.61688 3.60147 2.63544 3.68382C2.65401 3.76618 2.66498 3.83676 2.66835 3.89559C2.67173 3.95441 2.67342 4.03676 2.67342 4.14265C2.67342 4.24853 2.67173 4.33015 2.66835 4.3875C2.66498 4.44485 2.65401 4.51471 2.63544 4.59706C2.61688 4.67941 2.58565 4.73971 2.54177 4.77794C2.49789 4.81618 2.43882 4.83529 2.36456 4.83529C2.3173 4.83529 2.27595 4.82647 2.24051 4.80882C2.20506 4.79118 2.17722 4.7625 2.15696 4.72279C2.13671 4.68309 2.12068 4.64485 2.10886 4.60809C2.09705 4.57132 2.08861 4.52059 2.08354 4.45588C2.07848 4.39118 2.07511 4.34044 2.07342 4.30368C2.07173 4.26691 2.07089 4.21324 2.07089 4.14265ZM2.38481 7.79118H3.09873L5.79241 2.73529H5.06329L2.38481 7.79118ZM4.70886 6.38382C4.71561 6.77794 4.81435 7.09118 5.00506 7.32353C5.19578 7.55588 5.48354 7.67206 5.86835 7.67206C6.25654 7.67206 6.5443 7.55662 6.73165 7.32574C6.91899 7.09485 7.01435 6.78088 7.01772 6.38382C7.01435 5.98971 6.91899 5.67721 6.73165 5.44632C6.5443 5.21544 6.25654 5.1 5.86835 5.1C5.48354 5.1 5.19578 5.21544 5.00506 5.44632C4.81435 5.67721 4.71561 5.98971 4.70886 6.38382ZM5.55949 6.38382C5.55949 6.27794 5.56118 6.19632 5.56456 6.13897C5.56793 6.08162 5.5789 6.01176 5.59747 5.92941C5.61603 5.84706 5.64726 5.78676 5.69114 5.74853C5.73502 5.71029 5.79409 5.69118 5.86835 5.69118C5.91899 5.69118 5.96203 5.7 5.99747 5.71765C6.03291 5.73529 6.0616 5.76471 6.08354 5.80588C6.10549 5.84706 6.12321 5.88456 6.13671 5.91838C6.15021 5.95221 6.15865 6.00294 6.16203 6.07059L6.16962 6.22279L6.17215 6.38382C6.17215 6.46029 6.17131 6.51544 6.16962 6.54927L6.16203 6.70147L6.13671 6.85368L6.08354 6.96618L5.99747 7.05441L5.86835 7.08088C5.79409 7.08088 5.73502 7.06177 5.69114 7.02353C5.64726 6.98529 5.61603 6.925 5.59747 6.84265C5.5789 6.76029 5.56793 6.68971 5.56456 6.63088C5.56118 6.57206 5.55949 6.48971 5.55949 6.38382Z" fill="white"/>
</svg>
