<svg width="6" height="11" viewBox="0 0 6 11" fill="none" xmlns="http://www.w3.org/2000/svg">
<path d="M1.4375 2.40625C1.4375 1.95041 1.61858 1.51324 1.94091 1.19091C2.26324 0.868582 2.70041 0.6875 3.15625 0.6875C3.61209 0.6875 4.04926 0.868582 4.37159 1.19091C4.69392 1.51324 4.875 1.95041 4.875 2.40625V6.15312C5.20661 6.49157 5.43091 6.92038 5.51979 7.38579C5.60867 7.8512 5.55816 8.33249 5.37461 8.76931C5.19105 9.20613 4.88262 9.57904 4.48798 9.84128C4.09335 10.1035 3.63007 10.2434 3.15625 10.2434C2.68243 10.2434 2.21916 10.1035 1.82452 9.84128C1.42988 9.57904 1.12145 9.20613 0.937893 8.76931C0.754339 8.33249 0.703835 7.8512 0.792713 7.38579C0.881591 6.92038 1.1059 6.49157 1.4375 6.15312V2.40625ZM3.15625 1.375C2.88275 1.375 2.62044 1.48365 2.42705 1.67705C2.23365 1.87044 2.125 2.13275 2.125 2.40625V6.45356L2.01088 6.55669C1.75139 6.78873 1.56849 7.0941 1.48636 7.43237C1.40424 7.77065 1.42676 8.12589 1.55096 8.45109C1.67516 8.77628 1.89517 9.0561 2.18188 9.25351C2.46859 9.45092 2.80849 9.55662 3.1566 9.55662C3.5047 9.55662 3.8446 9.45092 4.13131 9.25351C4.41802 9.0561 4.63804 8.77628 4.76223 8.45109C4.88643 8.12589 4.90895 7.77065 4.82683 7.43237C4.7447 7.0941 4.5618 6.78873 4.30231 6.55669L4.1875 6.45287V2.40625C4.1875 2.13275 4.07885 1.87044 3.88546 1.67705C3.69206 1.48365 3.42976 1.375 3.15625 1.375ZM3.5 4.125C3.5 4.03383 3.46378 3.9464 3.39932 3.88193C3.33485 3.81747 3.24742 3.78125 3.15625 3.78125C3.06508 3.78125 2.97765 3.81747 2.91318 3.88193C2.84872 3.9464 2.8125 4.03383 2.8125 4.125V6.93344C2.58315 7.01453 2.38984 7.17409 2.26675 7.38391C2.14366 7.59374 2.09872 7.84033 2.13985 8.08009C2.18099 8.31986 2.30556 8.53736 2.49156 8.69416C2.67755 8.85096 2.91298 8.93696 3.15625 8.93696C3.39952 8.93696 3.63495 8.85096 3.82095 8.69416C4.00694 8.53736 4.13151 8.31986 4.17265 8.08009C4.21379 7.84033 4.16884 7.59374 4.04575 7.38391C3.92266 7.17409 3.72936 7.01453 3.5 6.93344V4.125Z" fill="white"/>
</svg>
