<svg width="10" height="10" viewBox="0 0 10 10" fill="none" xmlns="http://www.w3.org/2000/svg">
<path d="M7.8125 1.25C7.3981 1.25 7.00067 1.41462 6.70765 1.70765C6.41462 2.00067 6.25 2.3981 6.25 2.8125C6.25 2.89538 6.21708 2.97487 6.15847 3.03347C6.09987 3.09208 6.02038 3.125 5.9375 3.125C5.85462 3.125 5.77513 3.09208 5.71653 3.03347C5.65792 2.97487 5.625 2.89538 5.625 2.8125C5.625 2.37985 5.75329 1.95692 5.99366 1.59719C6.23403 1.23746 6.57567 0.957081 6.97538 0.791515C7.37509 0.625948 7.81493 0.582628 8.23926 0.667033C8.66359 0.751438 9.05337 0.959778 9.3593 1.2657C9.66522 1.57163 9.87356 1.96141 9.95797 2.38574C10.0424 2.81007 9.99905 3.24991 9.83349 3.64962C9.66792 4.04933 9.38754 4.39098 9.02781 4.63134C8.66808 4.87171 8.24515 5 7.8125 5H0.3125C0.22962 5 0.150134 4.96708 0.0915291 4.90847C0.032924 4.84987 0 4.77038 0 4.6875C0 4.60462 0.032924 4.52514 0.0915291 4.46653C0.150134 4.40792 0.22962 4.375 0.3125 4.375H7.8125C8.2269 4.375 8.62433 4.21038 8.91735 3.91736C9.21038 3.62433 9.375 3.2269 9.375 2.8125C9.375 2.3981 9.21038 2.00067 8.91735 1.70765C8.62433 1.41462 8.2269 1.25 7.8125 1.25ZM3.4375 1.875C3.27174 1.875 3.11277 1.94085 2.99556 2.05806C2.87835 2.17527 2.8125 2.33424 2.8125 2.5C2.8125 2.58288 2.77958 2.66237 2.72097 2.72097C2.66237 2.77958 2.58288 2.8125 2.5 2.8125C2.41712 2.8125 2.33763 2.77958 2.27903 2.72097C2.22042 2.66237 2.1875 2.58288 2.1875 2.5C2.1875 2.25277 2.26081 2.0111 2.39816 1.80554C2.53551 1.59998 2.73074 1.43976 2.95915 1.34515C3.18755 1.25054 3.43889 1.22579 3.68136 1.27402C3.92384 1.32225 4.14657 1.4413 4.32138 1.61612C4.4962 1.79093 4.61525 2.01366 4.66348 2.25614C4.71171 2.49861 4.68696 2.74995 4.59235 2.97836C4.49774 3.20676 4.33752 3.40199 4.13196 3.53934C3.9264 3.67669 3.68473 3.75 3.4375 3.75H0.3125C0.22962 3.75 0.150134 3.71708 0.0915291 3.65847C0.032924 3.59987 0 3.52038 0 3.4375C0 3.35462 0.032924 3.27514 0.0915291 3.21653C0.150134 3.15792 0.22962 3.125 0.3125 3.125H3.4375C3.60326 3.125 3.76223 3.05915 3.87944 2.94194C3.99665 2.82473 4.0625 2.66576 4.0625 2.5C4.0625 2.33424 3.99665 2.17527 3.87944 2.05806C3.76223 1.94085 3.60326 1.875 3.4375 1.875ZM0 5.9375C0 5.85462 0.032924 5.77514 0.0915291 5.71653C0.150134 5.65793 0.22962 5.625 0.3125 5.625H6.58875C6.95959 5.625 7.3221 5.73497 7.63044 5.941C7.93879 6.14702 8.17911 6.43986 8.32102 6.78247C8.46294 7.12508 8.50007 7.50208 8.42772 7.8658C8.35538 8.22951 8.1768 8.5636 7.91458 8.82583C7.65235 9.08805 7.31826 9.26663 6.95454 9.33897C6.59083 9.41132 6.21383 9.37419 5.87122 9.23228C5.52861 9.09036 5.23577 8.85004 5.02974 8.5417C4.82372 8.23335 4.71375 7.87084 4.71375 7.5C4.71375 7.41712 4.74667 7.33764 4.80528 7.27903C4.86388 7.22043 4.94337 7.1875 5.02625 7.1875C5.10913 7.1875 5.18862 7.22043 5.24722 7.27903C5.30583 7.33764 5.33875 7.41712 5.33875 7.5C5.33875 7.74723 5.41206 7.9889 5.54941 8.19446C5.68676 8.40003 5.88199 8.56024 6.1104 8.65485C6.3388 8.74946 6.59014 8.77421 6.83261 8.72598C7.07509 8.67775 7.29782 8.5587 7.47263 8.38388C7.64745 8.20907 7.7665 7.98634 7.81473 7.74386C7.86296 7.50139 7.83821 7.25005 7.7436 7.02165C7.64899 6.79324 7.48877 6.59802 7.28321 6.46066C7.07765 6.32331 6.83598 6.25 6.58875 6.25H0.3125C0.22962 6.25 0.150134 6.21708 0.0915291 6.15847C0.032924 6.09987 0 6.02038 0 5.9375Z" fill="white"/>
</svg>
